Coordinates
version=1
nRows=8
nColumns=34
inDegrees=yes

Units are S.I. units (second, meters, Newtons, ...)
Angles are in degrees.

endheader
time	pelvis_tilt	pelvis_list	pelvis_rotation	pelvis_tx	pelvis_ty	pelvis_tz	hip_flexion_r	hip_adduction_r	hip_rotation_r	knee_angle_r	ankle_angle_r	subtalar_angle_r	mtp_angle_r	hip_flexion_l	hip_adduction_l	hip_rotation_l	knee_angle_l	socket_flexion	socket_adduction	socket_rotation	socket_tx	socket_ty	socket_tz	pros_ankle_rx	pros_ankle_ry	pros_ankle_rz	pros_ankle_tx	pros_ankle_ty	pros_ankle_tz	foot_flex	lumbar_extension	lumbar_bending	lumbar_rotation
      0.60000000	     -2.65753714	     -3.57805760	      7.14804014	     -0.01596577	      1.01758816	      0.34510187	     24.20016533	      1.03066757	     -9.89707525	      2.44667482	     14.20496586	      6.82317477	      2.00770782	    -10.62785629	     -3.76459858	      4.90009681	    -16.82475855	      0.00000000	      0.00000000	      0.00000000	      0.00000000	     -0.01362443	      0.00000000	      0.00000000	      0.00000000	      0.00000000	      0.00000000	      0.00000000	      0.00000000	     14.28150592	     -7.04033677	     -1.64462766	    -29.64431928
      0.60416667	     -2.66706913	     -3.59904491	      7.31028367	     -0.00999118	      1.01643558	      0.34510770	     24.31934820	      1.01280831	     -9.71391084	      2.28717410	     14.13465238	      6.85556786	      2.02731063	    -10.80731832	     -3.86539509	      5.01945588	    -17.10046659	      0.00000000	      0.00000000	      0.00000000	      0.00000000	     -0.01353903	      0.00000000	      0.00000000	      0.00000000	      0.00000000	      0.00000000	      0.00000000	      0.00000000	     14.35462905	     -6.98194314	     -1.53662229	    -29.72345808
      0.60833333	     -2.71966440	     -3.62313679	      7.49939154	     -0.00397962	      1.01520665	      0.34504552	     24.52002132	      0.97037765	     -9.54955613	      1.98581183	     14.00294950	      6.85381789	      2.08081367	    -10.92672160	     -3.97038887	      5.12442025	    -17.38492683	      0.00000000	      0.00000000	      0.00000000	      0.00000000	     -0.01349589	      0.00000000	      0.00000000	      0.00000000	      0.00000000	      0.00000000	      0.00000000	      0.00000000	     14.47549886	     -6.96782170	     -1.30525901	    -29.89226169
      0.61250000	     -2.94159261	     -3.72978925	      7.74736869	      0.00208820	      1.01370967	      0.34486717	     24.95941311	      0.94706328	     -9.55069096	      1.52298815	     13.86422425	      6.87605388	      2.58128635	    -10.80158014	     -4.14806380	      5.32095114	    -17.75912481	      0.00000000	      0.00000000	      0.00000000	      0.00000000	     -0.01358053	      0.00000000	      0.00000000	      0.00000000	      0.00000000	      0.00000000	      0.00000000	      0.00000000	     14.52743232	     -6.65547514	     -1.12844489	    -30.34945304
      0.61666667	     -2.90775891	     -3.77452228	      7.87829699	      0.00819583	      1.01267053	      0.34489034	     25.10473856	      0.96021239	     -9.34975563	      1.05909552	     13.61842672	      6.89485500	      2.65846858	    -11.00862141	     -4.27501102	      5.36431481	    -18.06635799	      0.00000000	      0.00000000	      0.00000000	      0.00000000	     -0.01346293	      0.00000000	      0.00000000	      0.00000000	      0.00000000	      0.00000000	      0.00000000	      0.00000000	     14.59940032	     -6.66134075	     -0.91765059	    -30.37171438
      0.62083333	     -2.87595690	     -3.84266882	      8.08438451	      0.01452908	      1.01171164	      0.34488501	     25.13923722	      0.98968797	     -9.12308169	      0.72899877	     13.47470480	      6.93164920	      2.67990037	    -11.20269939	     -4.45414829	      5.42097821	    -18.37822652	      0.00000000	      0.00000000	      0.00000000	      0.00000000	     -0.01331730	      0.00000000	      0.00000000	      0.00000000	      0.00000000	      0.00000000	      0.00000000	      0.00000000	     14.57695878	     -6.59425277	     -0.86629593	    -30.38220403
      0.62500000	     -2.81380200	     -3.93181207	      8.13518161	      0.02055197	      1.01070129	      0.34497083	     25.41777872	      1.06202063	     -8.95396767	     -0.10088809	     13.01554870	      6.86451344	      2.77446038	    -11.40326677	     -4.60426695	      5.44489041	    -18.77263570	      0.00000000	      0.00000000	      0.00000000	      0.00000000	     -0.01328564	      0.00000000	      0.00000000	      0.00000000	      0.00000000	      0.00000000	      0.00000000	      0.00000000	     14.68198869	     -6.68859529	     -0.45326264	    -30.46468422
      0.62916667	     -2.79407247	     -4.08731233	      8.23283331	      0.02674780	      1.00962013	      0.34509155	     25.70837697	      1.18794379	     -8.87116138	     -0.90402848	     12.62426053	      6.76117304	      3.02270260	    -11.53817575	     -4.84787701	      5.38353284	    -19.18558995	      0.00000000	      0.00000000	      0.00000000	      0.00000000	     -0.01339394	      0.00000000	      0.00000000	      0.00000000	      0.00000000	      0.00000000	      0.00000000	      0.00000000	     14.66072137	     -6.73367521	     -0.18439155	    -30.51617375
